<svg width="38" height="25" viewBox="0 0 38 25" fill="none" xmlns="http://www.w3.org/2000/svg">
<path d="M26.2106 14.1706C27.0616 14.3965 27.9395 14.5053 28.8199 14.4939V22.9217C28.7931 23.2776 28.6435 23.6132 28.3966 23.8709C28.1497 24.1287 27.8209 24.2927 27.4665 24.3348H25.9183C25.5201 24.2913 25.1526 24.1003 24.8881 23.7995C24.6237 23.4987 24.4813 23.1098 24.4892 22.7093V13.5193C25.0484 13.7732 25.6234 13.9908 26.2106 14.1706ZM24.4892 12.4235C23.235 11.7842 22.1118 10.9154 21.1778 9.8621C20.2389 8.83911 19.6729 7.52904 19.5717 6.1442C19.5293 4.96833 19.8066 3.80297 20.374 2.7722C20.8583 1.98089 21.5245 1.31657 22.3172 0.834435C23.1098 0.3523 24.0061 0.0662687 24.9315 0.000101089C24.9775 0.000101089 25.0238 0.000868019 25.0703 0.00240135C26.4622 0.0484014 29.8255 0.361201 32.8462 4.3614C32.6828 4.36759 32.5199 4.38211 32.3581 4.4049C31.5477 4.54122 30.7752 4.84724 30.0913 5.3029C29.4074 5.75857 28.8275 6.3536 28.3896 7.049C27.5511 8.34342 27.1207 9.85987 27.1542 11.4018C27.1622 11.6296 27.1909 11.8563 27.2401 12.0789C27.3525 12.5694 27.5558 13.0345 27.8394 13.4502C27.3868 13.4168 26.9387 13.3377 26.502 13.214C25.8103 13.0067 25.1371 12.7423 24.4892 12.4235ZM25.5548 6.0905C25.7479 6.22311 25.9807 6.28509 26.2142 6.26598C26.4476 6.24687 26.6674 6.14784 26.8363 5.9856L26.8943 5.9132C27.0005 5.80023 27.0785 5.66375 27.122 5.51489C27.1654 5.36603 27.173 5.20901 27.1442 5.05664C27.1154 4.90427 27.051 4.76087 26.9562 4.63813C26.8615 4.5154 26.739 4.4168 26.5989 4.3504L25.0889 3.3786C24.8784 3.23183 24.6248 3.16009 24.3686 3.17491C24.1125 3.18973 23.8688 3.29025 23.6767 3.4603L23.5918 3.5427C23.5038 3.65034 23.4399 3.77564 23.4046 3.91011C23.3693 4.04458 23.3632 4.18508 23.387 4.32208C23.4107 4.45908 23.4635 4.58939 23.542 4.70416C23.6205 4.81893 23.7227 4.91549 23.8418 4.9873L25.5548 6.0905ZM37.2893 10.286C37.2505 10.4879 37.198 10.6869 37.1322 10.8817C36.9714 11.3439 36.7579 11.7859 36.4958 12.1991C36.1812 12.7543 35.7802 13.2558 35.3078 13.6848C34.919 14.0714 34.4554 14.3747 33.9454 14.5761C33.4354 14.7775 32.8897 14.8729 32.3417 14.8563C31.7123 14.8577 31.0874 14.7512 30.4941 14.5414C30.4199 14.5067 30.3618 14.4724 30.292 14.4378C30.0102 14.3005 29.7371 14.1458 29.4745 13.9746C29.2562 13.8325 29.0508 13.6714 28.8607 13.4934C28.8463 13.4797 28.8339 13.4659 28.82 13.4521C28.389 13.0299 28.0927 12.4895 27.9686 11.8991C27.938 11.7638 27.9177 11.6264 27.9078 11.488C27.7512 9.6659 28.8455 5.7646 32.4844 5.1439C32.7127 5.10376 32.9439 5.08299 33.1757 5.0818C33.2431 5.0818 33.3147 5.0929 33.3839 5.0971C33.6491 5.10909 33.9115 5.15699 34.1639 5.2395C34.2113 5.256 34.2528 5.2829 34.2993 5.3007C34.5469 5.39312 34.7867 5.50542 35.0163 5.6365C35.7557 6.06274 36.3664 6.68054 36.7841 7.4248C37.0484 7.91342 37.2283 8.44311 37.3164 8.9916C37.3764 9.42175 37.3672 9.85873 37.2893 10.286ZM35.9856 9.506C35.8369 9.0173 35.2738 9.028 34.9232 9.506L33.1808 11.9074C32.9141 12.4067 33.1159 13.0124 33.5834 12.9698H33.5845C34.3185 12.7509 34.9562 12.2887 35.3926 11.6592C35.829 11.0297 36.0381 10.2702 35.9856 9.506ZM8.53558 14.4937V22.9215C8.56233 23.2775 8.71197 23.6131 8.95887 23.8709C9.20577 24.1287 9.5346 24.2927 9.88908 24.3348H11.4372C11.8354 24.2913 12.2029 24.1004 12.4674 23.7995C12.7318 23.4987 12.8741 23.1098 12.8663 22.7093V13.5193C12.3071 13.7731 11.7322 13.9905 11.145 14.1702C10.294 14.3962 9.41602 14.505 8.53558 14.4937ZM16.9813 2.772C17.5487 3.80277 17.826 4.96813 17.7836 6.144C17.6825 7.52888 17.1166 8.83902 16.1778 9.8621C15.2439 10.9155 14.1207 11.7843 12.8665 12.4235C12.2186 12.7421 11.5453 13.0064 10.8536 13.2135C10.4161 13.3374 9.96709 13.4166 9.51359 13.4498C9.7988 13.0347 10.0029 12.5694 10.1153 12.0784C10.1645 11.8558 10.1932 11.6291 10.2012 11.4013C10.2346 9.85954 9.80422 8.34328 8.96579 7.049C8.52794 6.35363 7.94812 5.75862 7.2643 5.30294C6.58049 4.84726 5.80812 4.5412 4.99779 4.4048C4.83593 4.38201 4.67302 4.3675 4.50969 4.3613C7.53039 0.361301 10.8937 0.0483003 12.2856 0.00230026C12.3323 0.000800262 12.3782 0 12.4244 0C13.3497 0.0662881 14.2459 0.352386 15.0384 0.834532C15.831 1.31668 16.497 1.98076 16.9813 2.772ZM13.764 3.542L13.6791 3.4596C13.487 3.28955 13.2433 3.18903 12.9871 3.17421C12.731 3.15939 12.4773 3.23113 12.2669 3.3779L10.7569 4.3497C10.6168 4.41611 10.4943 4.5147 10.3996 4.63744C10.3048 4.76017 10.2404 4.90356 10.2116 5.05593C10.1827 5.20829 10.1904 5.3653 10.2338 5.51416C10.2772 5.66302 10.3552 5.79951 10.4614 5.9125L10.5195 5.9849C10.6884 6.14714 10.9081 6.24617 11.1416 6.26528C11.375 6.28439 11.6079 6.22241 11.801 6.0898L13.5148 4.9866C13.6337 4.91473 13.7358 4.81815 13.8141 4.70341C13.8924 4.58866 13.9452 4.45843 13.9688 4.32152C13.9925 4.18462 13.9864 4.04423 13.9511 3.90986C13.9158 3.77549 13.8519 3.64958 13.764 3.542ZM8.53558 13.452C8.52168 13.4658 8.50928 13.4795 8.49488 13.4932C8.30477 13.6713 8.09938 13.8323 7.88109 13.9744C7.6184 14.1456 7.34535 14.3003 7.06349 14.4376C6.99349 14.4722 6.93569 14.5065 6.86149 14.5412C6.26814 14.751 5.64322 14.8575 5.01389 14.8561C4.46584 14.8726 3.92018 14.7773 3.41021 14.5759C2.90024 14.3745 2.43666 14.0713 2.04779 13.6848C1.57535 13.2557 1.1743 12.7541 0.859685 12.1988C0.597576 11.7856 0.38403 11.3436 0.223285 10.8814C0.157461 10.6866 0.104973 10.4876 0.0661853 10.2857C-0.0117804 9.8584 -0.0209293 9.42139 0.0390853 8.9912C0.127217 8.44285 0.307208 7.91329 0.571485 7.4248C0.989322 6.6806 1.60018 6.0629 2.33969 5.6368C2.56905 5.50583 2.80863 5.39363 3.05609 5.3013C3.10289 5.2834 3.14459 5.2564 3.19209 5.2398C3.44445 5.15729 3.70684 5.10939 3.97209 5.0974C4.04129 5.0932 4.11289 5.0821 4.18029 5.0821C4.41206 5.08329 4.64331 5.10407 4.87159 5.1442C8.51049 5.7649 9.60478 9.6662 9.44818 11.4883C9.43828 11.6267 9.41795 11.7641 9.38739 11.8994C9.26315 12.4899 8.96668 13.0298 8.53558 13.452ZM4.17479 11.9074L2.43239 9.5062C2.08179 9.0282 1.51869 9.0175 1.36999 9.5062C1.31958 9.88074 1.34435 10.2616 1.44286 10.6264C1.54136 10.9913 1.71162 11.3328 1.94369 11.6311C2.14036 11.9675 2.40404 12.2599 2.71839 12.4902C3.03274 12.7205 3.39104 12.8837 3.77109 12.9698C4.23869 13.0124 4.44149 12.4067 4.17479 11.9074Z" fill="#1D1D1F"/>
</svg>
