<svg width="25" height="25" viewBox="0 0 25 25" fill="none" xmlns="http://www.w3.org/2000/svg">
<circle cx="12.5" cy="12.5" r="12.5" fill="#484848"/>
<path d="M19.0625 8.75C19.0625 8.98988 18.9709 9.22988 18.7878 9.4127L11.2878 16.9127C11.1055 17.0967 10.8652 17.1875 10.625 17.1875C10.3848 17.1875 10.1451 17.0959 9.96231 16.9128L6.2123 13.1628C6.0292 12.9805 5.9375 12.7402 5.9375 12.5C5.9375 11.9645 6.37549 11.5625 6.875 11.5625C7.11488 11.5625 7.35488 11.6541 7.5377 11.8372L10.625 14.9258L17.4629 8.08789C17.6445 7.9042 17.8848 7.8125 18.125 7.8125C18.626 7.8125 19.0625 8.21387 19.0625 8.75Z" fill="white"/>
</svg>
