<svg width="20" height="20" viewBox="0 0 20 20" fill="none" xmlns="http://www.w3.org/2000/svg">
<g clip-path="url(#clip0_30_41)">
<path d="M2.50002 18.125C2.41777 18.1255 2.33623 18.1097 2.26008 18.0786C2.18393 18.0475 2.11467 18.0017 2.05627 17.9437C1.99769 17.8856 1.9512 17.8165 1.91947 17.7404C1.88774 17.6642 1.8714 17.5825 1.8714 17.5C1.8714 17.4175 1.88774 17.3358 1.91947 17.2596C1.9512 17.1835 1.99769 17.1143 2.05627 17.0562L17.0563 2.05624C17.174 1.93855 17.3336 1.87244 17.5 1.87244C17.6665 1.87244 17.8261 1.93855 17.9438 2.05624C18.0615 2.17393 18.1276 2.33356 18.1276 2.49999C18.1276 2.66643 18.0615 2.82605 17.9438 2.94374L2.94377 17.9437C2.88537 18.0017 2.81611 18.0475 2.73996 18.0786C2.66382 18.1097 2.58228 18.1255 2.50002 18.125Z" fill="black"/>
<path d="M17.5003 18.125C17.418 18.1255 17.3365 18.1097 17.2604 18.0786C17.1842 18.0475 17.1149 18.0017 17.0565 17.9437L2.05655 2.94374C1.93886 2.82605 1.87274 2.66643 1.87274 2.49999C1.87274 2.33356 1.93886 2.17393 2.05655 2.05624C2.17424 1.93855 2.33386 1.87244 2.5003 1.87244C2.66674 1.87244 2.82636 1.93855 2.94405 2.05624L17.944 17.0562C18.0026 17.1143 18.0491 17.1835 18.0809 17.2596C18.1126 17.3358 18.1289 17.4175 18.1289 17.5C18.1289 17.5825 18.1126 17.6642 18.0809 17.7404C18.0491 17.8165 18.0026 17.8856 17.944 17.9437C17.8856 18.0017 17.8164 18.0475 17.7402 18.0786C17.6641 18.1097 17.5826 18.1255 17.5003 18.125Z" fill="black"/>
</g>
<defs>
<clipPath id="clip0_30_41">
<rect width="20" height="20" fill="white"/>
</clipPath>
</defs>
</svg>
